<?xml version="1.0" encoding="UTF-8"?>
<svg width="512" height="512" viewBox="0 0 512 512" fill="none" xmlns="http://www.w3.org/2000/svg">
  <defs>
    <radialGradient id="grad" cx="50%" cy="35%" r="70%">
      <stop offset="0%" stop-color="#FF6A00"/>
      <stop offset="60%" stop-color="#FF3D00"/>
      <stop offset="100%" stop-color="#D92E00"/>
    </radialGradient>
    <filter id="dropShadow" x="-50%" y="-50%" width="200%" height="200%">
      <feOffset dx="0" dy="10" result="off"/>
      <feGaussianBlur in="off" stdDeviation="12" result="blur"/>
      <feColorMatrix in="blur" type="matrix" 
        values="0 0 0 0 0
                0 0 0 0 0
                0 0 0 0 0
                0 0 0 0.35 0" result="shadow"/>
      <feBlend in="SourceGraphic" in2="shadow" mode="normal"/>
    </filter>
    <filter id="innerShadow" x="-50%" y="-50%" width="200%" height="200%">
      <feOffset dy="6" dx="0" />
      <feGaussianBlur stdDeviation="8" result="blur"/>
      <feComposite in2="SourceAlpha" operator="arithmetic" k2="-1" k3="1" result="inner"/>
      <feColorMatrix in="inner" type="matrix"
        values="0 0 0 0 0
                0 0 0 0 0
                0 0 0 0 0
                0 0 0 0.35 0"/>
      <feBlend in="SourceGraphic" mode="normal"/>
    </filter>
  </defs>

  <!-- 3D circular badge -->
  <g filter="url(#dropShadow)">
    <circle cx="256" cy="256" r="200" fill="url(#grad)"/>
    <!-- glossy highlight -->
    <ellipse cx="220" cy="180" rx="120" ry="70" fill="white" opacity="0.15"/>
  </g>

  <!-- White Q with soft inner shadow for 3D feel -->
  <g filter="url(#innerShadow)">
    <path fill="#FFFFFF" d="
      M256,126
      c-71.8,0 -130,58.2 -130,130
      s58.2,130 130,130
      s130,-58.2 130,-130
      s-58.2,-130 -130,-130
      z
      M256,176
      c44.2,0 80,35.8 80,80
      c0,13.7 -3.4,26.6 -9.4,38
      l34.4,34.4
      c6.2,6.2 6.2,16.4 0,22.6
      c-6.2,6.2 -16.4,6.2 -22.6,0
      l-33.2,-33.2
      c-12,7.8 -26.3,12.2 -41.7,12.2
      c-44.2,0 -80,-35.8 -80,-80
      s35.8,-80 80,-80 z"/>
  </g>
</svg>
